<svg xmlns="http://www.w3.org/2000/svg" version="1.1" xmlns:xlink="http://www.w3.org/1999/xlink" xmlns:svgjs="http://svgjs.dev/svgjs" width="1440" height="250" preserveAspectRatio="none" viewBox="0 0 1440 350"><g mask="url(&quot;#SvgjsMask1141&quot;)" fill="none"><path d="M 0,-1 C 48,24 144,108.2 240,124 C 336,139.8 384,79.8 480,78 C 576,76.2 624,120 720,115 C 816,110 864,45.2 960,53 C 1056,60.8 1104,156.4 1200,154 C 1296,151.6 1392,63.6 1440,41L1440 350L0 350z" fill="rgba(158, 60, 101, 1)"></path><path d="M 0,292 C 57.6,274.2 172.8,208.2 288,203 C 403.2,197.8 460.8,256 576,266 C 691.2,276 748.8,249.8 864,253 C 979.2,256.2 1036.8,295.6 1152,282 C 1267.2,268.4 1382.4,204.4 1440,185L1440 350L0 350z" fill="rgba(153, 56, 99, 1)"></path></g><defs><mask id="SvgjsMask1141"><rect width="1440" height="350" fill="#ffffff"></rect></mask></defs></svg>